<svg xmlns="http://www.w3.org/2000/svg" style="width:0; height:0; visibility:hidden;">
    <symbol id="icon_close-icon-1" viewBox="0 0 34.531 43.16">
      <path d="m .293 1.707c-.391-.391-.39-1.023.001-1.414l0 0c .39-.391 1.023-.391 1.414 0l0 0 16.265 16.264c.39.391.389 1.023-.002 1.414l0 0c-.391.39-1.023.39-1.413.002l0 0z"/><path d="m1.71 34.236c-.391.391-1.024.389-1.415-.002l0 0c-.39-.391-.391-1.023 0-1.414l0 0 16.265-16.265c.39-.389 1.023-.389 1.413.002l0 0c .391.391.392 1.023.002 1.414l0 0z"/><path d="m34.238 32.821c.391.391.391 1.023 0 1.414l0 0c-.391.391-1.023.391-1.414 0l0 0-16.266-16.263c-.39-.391-.389-1.023.002-1.414l0 0c .391-.391 1.023-.391 1.413-.002l0 0z"/><path d="m32.821.292c.391-.391 1.024-.389 1.415.002l0 0c .39.391.391 1.023 0 1.414l0 0-16.265 16.266c-.39.388-1.023.388-1.413-.002l0 0c-.391-.391-.392-1.023-.002-1.414l0 0z"/>
    </symbol>
    <symbol id="icon_close-icon-2" viewBox="0 0 96 120">
      <path d="m13.65 81.65 33.64-33.65-33.64-33.65.71-.71 33.64 33.65 33.65-33.64.71.71-33.65 33.64 33.64 33.65-.71.71-33.64-33.65-33.65 33.64z"/>
    </symbol>
    <symbol id="icon_fix-icon" viewBox="0 0 56 48">
      <path d="m1064 1200v5h15v2h-32v-2h15v-5h-27v-41h56v41zm25-39h-52v29h52zm-52 31v6h52v-6zm26.06 5a2.06 2.06 0 1 1 2.06-2.06 2.057 2.057 0 0 1 -2.06 2.06zm0-2.78a.715.715 0 1 0  .72.72.715.715 0 0 0 -.72-.72z" fill="#141414" fill-rule="evenodd" transform="translate(-1035 -1159)"/>
    </symbol>
    <symbol id="icon_logo-1" viewBox="0 0 66 82.5">
      <g><polygon points="18.8,16.2 4.1,33 18.8,49.8 22.6,46.5 10.8,33 22.6,19.5  "/><rect x="13.7" y="30.5" transform="matrix(0.1961 -0.9806 0.9806 0.1961 -5.831 58.8873)" width="38.5" height="5"/><polygon points="43.4,19.5 55.2,33 43.4,46.5 47.2,49.8 61.9,33 47.2,16.2  "/></g>
    </symbol>
    <symbol id="icon_logo-2" viewBox="0 0 100 125">
      <g transform="translate(0,-952.36218)"><path style="text-indent:0;text-transform:none;direction:ltr;block-progression:tb;baseline-shift:baseline;color:#000000;enable-background:accumulate;" d="m 54.0938,981.78405 -12,39.99995 3.8124,1.1563 12,-40 -3.8124,-1.15625 z m -19.5626,2.21875 -16,17 -1.2812,1.375 1.2812,1.3437 16,17 2.9376,-2.7187 -14.7188,-15.625 14.7188,-15.65625 -2.9376,-2.71875 z m 30.9376,0 -2.9376,2.71875 14.7188,15.65625 -14.7188,15.625 2.9376,2.7187 16,-17 1.2812,-1.3437 -1.2812,-1.375 -16,-17 z" fill="#000000" fill-opacity="1" stroke="none" marker="none" visibility="visible" display="inline" overflow="visible"/></g>
    </symbol>
    <symbol id="icon_menu-icon-1" viewBox="0 0 100 125">
      <path d="m5.056 48.572h90.016v2h-90.016z"/><path d="m4.993 85.238h90.077v2h-90.077z"/><path d="m5.057 11.904h90.013v2h-90.013z"/>
    </symbol>
    <symbol id="icon_menu-icon-2" viewBox="0 0 100 125">
      <path d="m50 95c-24.813 0-45-20.188-45-45s20.187-45 45-45c24.812 0 45 20.188 45 45s-20.188 45-45 45zm0-89.357c-24.457 0-44.354 19.898-44.354 44.357s19.897 44.357 44.354 44.357 44.354-19.898 44.354-44.357-19.897-44.357-44.354-44.357z"/><path d="m28.057 36.463h43.886v.645h-43.886z"/><path d="m28.057 49.678h43.886v.645h-43.886z"/><path d="m28.057 62.895h43.886v.643h-43.886z"/>
    </symbol>
    <symbol id="icon_menu-icon-3" viewBox="0 0 96 90.4125">
      <path d="m1.5 3h42.27a1.5 1.5 0 0 0 0-3h-42.27a1.5 1.5 0 0 0 0 3z"/><path d="m1.5 26.67h93a1.5 1.5 0 0 0 0-3h-93a1.5 1.5 0 0 0 0 3z"/><path d="m94.5 47.34h-93a1.5 1.5 0 0 0 0 3h93a1.5 1.5 0 0 0 0-3z"/><path d="m65.75 69.33h-64.25a1.5 1.5 0 0 0 0 3h64.25a1.5 1.5 0 0 0 0-3z"/>
    </symbol>
    <symbol id="icon_menu-icon-4" viewBox="0 0 40 46.25">
      <title>more</title><desc>Created with Sketch.</desc><g><g transform="translate(-1111.000000, -1952.000000)"><path d="M1112.2,1955c-0.7,0-1.2-0.7-1.2-1.5s0.6-1.5,1.2-1.5h37.5c0.7,0,1.2,0.7,1.2,1.5s-0.6,1.5-1.2,1.5H1112.2z     M1112.2,1972c-0.7,0-1.2-0.7-1.2-1.5s0.6-1.5,1.2-1.5h37.5c0.7,0,1.2,0.7,1.2,1.5s-0.6,1.5-1.2,1.5H1112.2z M1112.2,1989    c-0.7,0-1.2-0.7-1.2-1.5s0.6-1.5,1.2-1.5h37.5c0.7,0,1.2,0.7,1.2,1.5s-0.6,1.5-1.2,1.5H1112.2z"/></g></g>
    </symbol>
    <symbol id="icon_menu-icon-5" viewBox="0 0 100 125">
      <path fill-rule="evenodd" clip-rule="evenodd" d="M78.181,29.658H21.819c-1.689,0-3.058-1.369-3.058-3.058v-1.2  c0-1.689,1.369-3.058,3.058-3.058h56.363c1.689,0,3.058,1.369,3.058,3.058v1.2C81.24,28.289,79.871,29.658,78.181,29.658z   M21.819,46.341h44.362c1.689,0,3.058,1.369,3.058,3.058v1.2c0,1.689-1.369,3.058-3.058,3.058H21.819  c-1.689,0-3.058-1.369-3.058-3.058v-1.2C18.76,47.711,20.129,46.341,21.819,46.341z M21.819,70.341h32.363  c1.689,0,3.058,1.369,3.058,3.058v1.2c0,1.689-1.369,3.058-3.058,3.058H21.819c-1.689,0-3.058-1.369-3.058-3.058v-1.2  C18.76,71.711,20.129,70.341,21.819,70.341z"/>
    </symbol>
    <symbol id="icon_menu-icon-6" viewBox="0 0 100 125">
      <path fill="#000000" d="M33.883,26.69h32.235c4.879,0,8.869-3.497,8.869-7.771c0-4.272-3.99-7.77-8.869-7.77H33.883  c-4.879,0-8.87,3.497-8.87,7.77C25.013,23.193,29.004,26.69,33.883,26.69z"/><path fill="#000000" d="M66.118,73.31H33.883c-4.879,0-8.87,3.497-8.87,7.771c0,4.272,3.991,7.77,8.87,7.77h32.235  c4.879,0,8.869-3.497,8.869-7.77C74.987,76.807,70.997,73.31,66.118,73.31z"/><path fill="#000000" d="M86.13,42.23H13.871c-4.879,0-8.87,3.496-8.87,7.77s3.991,7.77,8.87,7.77H86.13  c4.879,0,8.869-3.496,8.869-7.77S91.009,42.23,86.13,42.23z"/>
    </symbol>
    <symbol id="icon_menu-icon-7" viewBox="0 0 100 125">
      <g transform="translate(0,-952.36218)"><path d="m 14,970.36216 c -2.7614,0 -5.0000001,2.2385 -5.0000001,5 0,2.76149 2.2386001,5 5.0000001,5 l 72,0 c 2.7614,0 5,-2.23851 5,-5 0,-2.7615 -2.2386,-5 -5,-5 z m 0,27 c -2.7614,0 -5.0000001,2.23845 -5.0000001,4.99994 0,2.7615 2.2386001,5 5.0000001,5 l 72,0 c 2.7614,0 5,-2.2385 5,-5 0,-2.76149 -2.2386,-4.99994 -5,-4.99994 z m 0,27.00004 c -2.7614,0 -5.0000001,2.2385 -5.0000001,5 0,2.7615 2.2386001,5 5.0000001,5 l 72,0 c 2.7614,0 5,-2.2385 5,-5 0,-2.7615 -2.2386,-5 -5,-5 z" style="text-indent:0;text-transform:none;direction:ltr;block-progression:tb;baseline-shift:baseline;color:#000000;enable-background:accumulate;" fill="#000000" fill-opacity="1" stroke="none" marker="none" visibility="visible" display="inline" overflow="visible"/></g>
    </symbol>
    <symbol id="icon_menu-icon-8" viewBox="0 0 812.50006 701.5625375000001">
      <g transform="translate(-1077.2895,-212.29511)"><path style="" d="m 1077.2895,748.54515 0,-25 406.2501,0 406.25,0 0,25 0,25 -406.25,0 -406.2501,0 0,-25 z m 0,-255.00002 0,-25 406.2501,0 406.25,0 0,25 0,25 -406.25,0 -406.2501,0 0,-25 z m 0,-256.25002 0,-25 406.2501,0 406.25,0 0,25 0,25 -406.25,0 -406.2501,0 0,-25 z"/></g>
    </symbol>
    <symbol id="icon_message-icon" viewBox="0 0 26 26">
      <path d="m1279.63 48.211-5.47 4.789v-4.79h-6.16v-21.21h26v21.211zm13-19.843h-23.26v18.474h6.16v2.737l3.42-2.737h13.68zm-20.52 10.264h6.15v1.368h-6.15zm0-3.422h10.26v1.369h-10.26zm0-3.42h10.26v1.367h-10.26z" fill-rule="evenodd" transform="translate(-1268 -27)"/>
    </symbol>
    <symbol id="icon_resp-icon" viewBox="0 0 30 50">
      <path d="m475.875 1157h-19.75a5.121 5.121 0 0 0 -5.125 5.12v38.76a5.121 5.121 0 0 0 5.125 5.12h19.75a5.121 5.121 0 0 0 5.125-5.12v-38.76a5.121 5.121 0 0 0 -5.125-5.12zm3.125 43.88a3.126 3.126 0 0 1 -3.125 3.12h-19.75a3.126 3.126 0 0 1 -3.125-3.12v-4.88h26zm0-6.88h-26v-28h26zm0-30h-26v-1.88a3.126 3.126 0 0 1 3.125-3.12h19.75a3.126 3.126 0 0 1 3.125 3.12zm-13 38a2 2 0 1 0 -2-2 2 2 0 0 0  2 2z" fill="#141414" fill-rule="evenodd" transform="translate(-451 -1156.5)"/>
    </symbol>
    <symbol id="icon_temp-icon" viewBox="0 0 48 48">
      <path d="m1066.1 1330.32 7.57 2.95.5 6.65 6.64.55 2.87 7.61-5.13 5.37 4.07 6.22-4.21 6.95-7.39-.74-2.39 7.03-8.06.96-3.97-6.29-7.01 2.45-5.71-5.77 2.5-7-6.24-4.02 1.03-8.07 7.05-2.33-.68-7.4 6.98-4.16 6.17 4.13zm-.45-2.32-5.17 4.86-5.9-3.94-9.14 5.45.64 7.07-6.74 2.23-1.34 10.57 5.96 3.84-2.39 6.69 7.49 7.56 6.7-2.34 3.79 6.01 10.57-1.25 2.28-6.73 7.06.71 5.52-9.1-3.88-5.95 4.9-5.13-3.77-9.96-6.2-.52-.46-6.21zm-3.65 17h0a7.007 7.007 0 1 1 -6.52 4.46 6.941 6.941 0 0 1  6.52-4.46m0-2a9 9 0 1 0 3.26.61 9.012 9.012 0 0 0 -3.26-.61z" fill="#141414" fill-rule="evenodd" transform="translate(-1038 -1328)"/>
    </symbol></svg>