<svg enable-background="new 0 0 34.531 34.528" viewBox="0 0 34.531 43.16" xml:space="preserve" xmlns="http://www.w3.org/2000/svg"><path d="m .293 1.707c-.391-.391-.39-1.023.001-1.414l0 0c .39-.391 1.023-.391 1.414 0l0 0 16.265 16.264c.39.391.389 1.023-.002 1.414l0 0c-.391.39-1.023.39-1.413.002l0 0z"/><path d="m1.71 34.236c-.391.391-1.024.389-1.415-.002l0 0c-.39-.391-.391-1.023 0-1.414l0 0 16.265-16.265c.39-.389 1.023-.389 1.413.002l0 0c .391.391.392 1.023.002 1.414l0 0z"/><path d="m34.238 32.821c.391.391.391 1.023 0 1.414l0 0c-.391.391-1.023.391-1.414 0l0 0-16.266-16.263c-.39-.391-.389-1.023.002-1.414l0 0c .391-.391 1.023-.391 1.413-.002l0 0z"/><path d="m32.821.292c.391-.391 1.024-.389 1.415.002l0 0c .39.391.391 1.023 0 1.414l0 0-16.265 16.266c-.39.388-1.023.388-1.413-.002l0 0c-.391-.391-.392-1.023-.002-1.414l0 0z"/></svg>
