<svg height="50" viewBox="0 0 30 50" width="30" xmlns="http://www.w3.org/2000/svg"><path d="m475.875 1157h-19.75a5.121 5.121 0 0 0 -5.125 5.12v38.76a5.121 5.121 0 0 0 5.125 5.12h19.75a5.121 5.121 0 0 0 5.125-5.12v-38.76a5.121 5.121 0 0 0 -5.125-5.12zm3.125 43.88a3.126 3.126 0 0 1 -3.125 3.12h-19.75a3.126 3.126 0 0 1 -3.125-3.12v-4.88h26zm0-6.88h-26v-28h26zm0-30h-26v-1.88a3.126 3.126 0 0 1 3.125-3.12h19.75a3.126 3.126 0 0 1 3.125 3.12zm-13 38a2 2 0 1 0 -2-2 2 2 0 0 0  2 2z" fill="#141414" fill-rule="evenodd" transform="translate(-451 -1156.5)"/></svg>