<svg xmlns="http://www.w3.org/2000/svg" xmlns:xlink="http://www.w3.org/1999/xlink" version="1.1" x="0px" y="0px" viewBox="0 0 100 125" style="enable-background:new 0 0 100 100;" xml:space="preserve"><g><path d="M50,46.7c8.3,0,15-6.7,15-15s-6.7-15-15-15s-15,6.7-15,15S41.7,46.7,50,46.7z M50,18.7c7.2,0,13,5.8,13,13s-5.8,13-13,13   s-13-5.8-13-13S42.8,18.7,50,18.7z"/><path d="M26.8,83.3h46.3c0.8,0,1.5-0.3,2-0.9c0.6-0.6,0.8-1.4,0.8-2.2c-1-14.8-12.2-25.9-26-25.9S25,65.5,24,80.2   c-0.1,0.8,0.2,1.6,0.8,2.2C25.3,83,26.1,83.3,26.8,83.3z M50,56.3c12.8,0,23.1,10.3,24,24c0,0.3-0.1,0.5-0.2,0.7   c-0.2,0.2-0.4,0.3-0.6,0.3H26.8c-0.2,0-0.4-0.1-0.6-0.3c-0.2-0.2-0.3-0.4-0.2-0.7C26.9,66.7,37.2,56.3,50,56.3z"/></g></svg>
