<svg xmlns="http://www.w3.org/2000/svg" xmlns:xlink="http://www.w3.org/1999/xlink" version="1.1" x="0px" y="0px" viewBox="0 0 100 100" style="enable-background:new 0 0 100 100;fill:#212121; " xml:space="preserve"><g><path d="M50,85.7c19.7,0,35.7-16,35.7-35.7c0-19.7-16-35.7-35.7-35.7S14.3,30.3,14.3,50C14.3,69.7,30.3,85.7,50,85.7z M26.4,74   c6.3-8.2,14.7-12.7,23.6-12.7S67.2,65.8,73.6,74c-6.1,6-14.4,9.6-23.6,9.6S32.5,80,26.4,74z M50,16.3c18.6,0,33.7,15.1,33.7,33.7   c0,8.7-3.3,16.6-8.7,22.6C68.3,64,59.4,59.3,50,59.3S31.7,64,25,72.6c-5.4-6-8.7-13.9-8.7-22.6C16.3,31.4,31.4,16.3,50,16.3z"/><path d="M50,52.3c7.3,0,13.2-5.9,13.2-13.2S57.3,25.9,50,25.9s-13.2,5.9-13.2,13.2S42.7,52.3,50,52.3z M50,27.9   c6.2,0,11.2,5,11.2,11.2c0,6.2-5,11.2-11.2,11.2s-11.2-5-11.2-11.2C38.8,33,43.8,27.9,50,27.9z"/></g></svg>
